<?xml version="1.0" encoding="UTF-8" standalone="no"?>
<!-- Uploaded to: SVG Repo, www.svgrepo.com, Generator: SVG Repo Mixer Tools -->

<svg
   height="800px"
   width="800px"
   version="1.1"
   id="Layer_1"
   viewBox="0 0 503.467 503.467"
   xml:space="preserve"
   sodipodi:docname="clock.svg"
   inkscape:version="1.3.2 (091e20e, 2023-11-25, custom)"
   xmlns:inkscape="http://www.inkscape.org/namespaces/inkscape"
   xmlns:sodipodi="http://sodipodi.sourceforge.net/DTD/sodipodi-0.dtd"
   xmlns="http://www.w3.org/2000/svg"
   xmlns:svg="http://www.w3.org/2000/svg"><defs
   id="defs4" /><sodipodi:namedview
   id="namedview4"
   pagecolor="#ffffff"
   bordercolor="#000000"
   borderopacity="0.25"
   inkscape:showpageshadow="2"
   inkscape:pageopacity="0.0"
   inkscape:pagecheckerboard="0"
   inkscape:deskcolor="#d1d1d1"
   inkscape:zoom="0.79125"
   inkscape:cx="400"
   inkscape:cy="343.12796"
   inkscape:window-width="1600"
   inkscape:window-height="829"
   inkscape:window-x="-8"
   inkscape:window-y="-8"
   inkscape:window-maximized="1"
   inkscape:current-layer="Layer_1" />
<g
   transform="matrix(1.0096421,0,0,1.0128561,-0.2901683,-1.096035)"
   id="g3"
   style="fill:#666666">
	<path
   style="fill:#666666"
   d="m 498.2,37.4 v 426.667 c 0,18.773 -15.36,34.133 -34.133,34.133 H 37.4 C 18.627,498.2 3.267,482.84 3.267,464.067 V 37.4 C 3.267,18.627 18.627,3.267 37.4,3.267 h 426.667 c 18.773,0 34.133,15.36 34.133,34.133"
   id="path1" />
	<path
   style="fill:#666666"
   d="m 250.733,233.667 c 9.387,0 17.067,7.68 17.067,17.067 0,9.387 -7.68,17.067 -17.067,17.067 -9.387,0 -17.067,-7.68 -17.067,-17.067 0.001,-9.387 7.681,-17.067 17.067,-17.067"
   id="path2" />
	<path
   style="fill:#666666"
   d="m 250.733,37.4 c 117.76,0 213.333,95.573 213.333,213.333 0,117.76 -95.573,213.333 -213.333,213.333 C 132.973,464.066 37.4,368.493 37.4,250.733 37.4,132.973 132.973,37.4 250.733,37.4 m -17.066,213.333 c 0,9.387 7.68,17.067 17.067,17.067 9.387,0 17.067,-7.68 17.067,-17.067 0,-9.387 -7.68,-17.067 -17.067,-17.067 -9.387,0.001 -17.067,7.681 -17.067,17.067"
   id="path3" />
</g>

<ellipse
   style="fill:#54c0eb;stroke-width:1.17069"
   cx="251.92635"
   cy="250.04529"
   id="circle2"
   rx="239.55937"
   ry="239.95706" /><path
   style="fill:#ff7058;stroke-width:1.78803"
   d="m 136.21181,368.15203 c -0.74439,0 -1.4888,0 -2.2332,-0.68716 -1.48879,-1.37433 -1.48879,-3.43582 0,-4.12299 L 270.20445,237.59065 c 1.48883,-1.37434 3.72203,-1.37434 4.46644,0 1.4888,1.37433 1.4888,3.43582 0,4.12298 L 138.44503,367.46487 c -0.74442,0.68716 -1.48881,0.68716 -2.23322,0.68716 z"
   id="path18" /><ellipse
   style="fill:#324a5e;stroke-width:2.23373"
   cx="258.4437"
   cy="247.10374"
   id="circle20"
   rx="19.856606"
   ry="19.458923" /><path
   style="fill:#2b3b4e;stroke-width:1.65656"
   d="m 345.7371,257.21436 v 0 l -94.4293,-1.90637 c -2.30315,0 -4.14567,-3.81274 -4.14567,-8.57869 0,-4.76593 1.84252,-8.57868 4.14567,-8.57868 v 0 l 94.4293,2.85956 c 2.30315,0 4.14567,3.81274 4.14567,8.57867 0,3.81277 -1.84252,7.62551 -4.14567,7.62551 z"
   id="path20" /><path
   style="fill:#2b3b4e;stroke-width:1.94095"
   d="m 258.58724,249.12038 c -4.63339,0 -8.34008,-2.60185 -8.34008,-5.85417 V 83.902508 c 0,-3.252331 3.70669,-5.854183 8.34008,-5.854183 4.63337,0 8.34006,2.601852 8.34006,5.854183 V 243.26621 c 0,3.25232 -3.70669,5.85417 -8.34006,5.85417 z"
   id="path19" /><g
   id="g17"
   transform="matrix(1.4949905,0,0,1.4521587,-125.58684,-117.77845)">
	<path
   style="fill:#324a5e"
   d="m 234,102 h 12 v 29.6 h -6.4 v -24 H 234 Z"
   id="path3-7" />
	<path
   style="fill:#324a5e"
   d="m 264.8,113.6 c 0.8,-1.2 1.2,-2 1.2,-3.2 0,-0.8 -0.4,-2 -0.8,-2.4 -0.8,-0.8 -1.6,-1.2 -2.4,-1.2 -2,0 -3.6,1.2 -5.2,4 l -5.2,-3.2 c 1.2,-2 2.8,-3.6 4.4,-4.8 1.6,-1.2 3.6,-1.6 6.4,-1.6 2.4,0 4.8,0.8 6.8,2.4 2,1.6 2.8,4 2.8,6.8 0,1.6 -0.4,3.2 -1.2,4.4 -0.8,1.6 -2.4,3.2 -4.4,5.2 l -5.2,5.6 h 11.6 v 6 h -20.8 v -4.8 l 8.8,-8.8 c 1.2,-2 2.4,-3.6 3.2,-4.4 z"
   id="path4-6" />
	<path
   style="fill:#324a5e"
   d="m 315.6,122 h 12 v 29.6 h -6.4 v -24 h -5.6 z"
   id="path5-0" />
	<path
   style="fill:#324a5e"
   d="m 373.2,183.6 c 0.8,-1.2 1.2,-2 1.2,-3.2 0,-0.8 -0.4,-2 -0.8,-2.4 -0.8,-0.8 -1.6,-1.2 -2.4,-1.2 -2,0 -3.6,1.2 -5.2,4 l -5.6,-2.8 c 1.2,-2 2.8,-3.6 4.4,-4.8 1.6,-1.2 3.6,-1.6 6.4,-1.6 2.4,0 4.8,0.8 6.8,2.4 2,1.6 2.8,4 2.8,6.8 0,1.6 -0.4,3.2 -1.2,4.4 -0.8,1.6 -2.4,3.2 -4.4,5.2 l -5.2,5.2 h 11.6 v 6 h -20.8 v -4.8 l 8.8,-8.8 c 1.6,-2 2.8,-3.6 3.6,-4.4 z"
   id="path6-8" />
	<path
   style="fill:#324a5e"
   d="m 380,244.8 v -5.6 h 18.4 v 4.4 l -6,6.8 c 2.4,0.4 4.4,1.2 5.6,3.2 1.2,1.6 2,3.6 2,5.6 0,3.2 -1.2,5.6 -3.2,7.2 -2,1.6 -4.8,2.8 -8,2.8 -3.2,0 -6.8,-1.2 -10,-3.6 l 2.8,-5.2 c 2.8,2 5.2,2.8 7.6,2.8 1.2,0 2.4,-0.4 3.2,-0.8 0.8,-0.8 1.2,-1.6 1.2,-2.8 0,-1.2 -0.4,-2.4 -1.6,-2.8 -0.8,-0.8 -2.4,-1.2 -4,-1.2 -0.8,0 -2.4,0.4 -4,0.8 v -4.8 l 5.6,-6.8 z"
   id="path7" />
	<path
   style="fill:#324a5e"
   d="m 372,323.6 v -5.2 h 6.4 v 5.2 h 3.6 v 5.6 h -3.2 v 7.2 h -6.4 v -7.2 h -12 V 324 l 10.4,-17.6 h 7.2 l -10,16.8 h 4 z"
   id="path8" />
	<path
   style="fill:#324a5e"
   d="m 330.4,356 v 5.6 h -11.6 v 4.8 c 0.8,-0.4 2,-0.4 3.2,-0.4 2.8,0 5.2,0.8 7.6,2.4 2,1.6 3.2,4 3.2,6.8 0,2.8 -1.2,5.2 -3.2,7.2 -2,2 -4.8,2.8 -8,2.8 -4,0 -7.2,-1.6 -10,-4.4 l 3.6,-4.8 c 0.4,0.4 0.4,0.4 1.2,0.8 0.4,0.4 1.2,0.8 2.4,1.6 1.2,0.8 2.4,0.8 3.6,0.8 1.2,0 2,-0.4 3.2,-1.2 0.8,-0.8 1.2,-1.6 1.2,-3.2 0,-1.6 -0.4,-2.4 -1.6,-3.2 -0.8,-0.8 -2,-1.2 -3.6,-1.2 -1.6,0 -3.2,0.4 -5.2,1.6 l -2.8,-2.8 v -14.4 h 16.8 z"
   id="path9" />
	<path
   style="fill:#324a5e"
   d="m 255.6,379.2 c -2,0 -3.2,0.8 -4.4,2 -1.2,1.2 -1.6,2.8 -2,5.2 2,-1.2 4,-1.6 6,-1.6 2.8,0 5.2,0.8 6.8,2.8 2,2 2.8,4.4 2.8,7.2 0,3.2 -0.8,5.6 -2.8,7.2 -2,2 -4.4,2.8 -7.6,2.8 -2,0 -4,-0.4 -5.6,-1.2 -1.6,-0.8 -2.8,-2 -3.6,-3.2 -1.6,-2.8 -2.4,-6.4 -2.4,-10.4 0,-2.8 0.4,-5.2 0.8,-7.2 0.8,-2 1.6,-3.6 2.8,-4.8 2.4,-2.4 5.2,-3.6 8.4,-3.6 1.2,0 2.8,0.4 4,0.8 1.2,0.4 2.4,0.8 2.8,1.2 0.8,0.4 1.6,0.8 2.4,1.6 l -2.8,4 c 0,0 -0.4,-0.4 -0.8,-0.8 -0.4,-0.4 -0.8,-0.8 -2,-1.2 -0.8,-0.4 -2,-0.8 -2.8,-0.8 z m -0.8,10.8 c -1.2,0 -2.4,0.4 -3.2,1.2 -0.8,0.8 -1.2,1.6 -1.2,3.2 0,1.2 0.4,2.4 1.2,3.2 0.8,0.8 2,1.2 3.2,1.2 1.2,0 2.4,-0.4 3.2,-1.2 0.8,-0.8 1.2,-2 1.2,-3.2 0,-1.2 -0.4,-2.4 -1.2,-3.2 -0.8,-0.8 -2,-1.2 -3.2,-1.2 z"
   id="path10" />
	<path
   style="fill:#324a5e"
   d="M 175.6,365.6 V 356 h 21.6 v 5.2 l -12,24.8 H 178 l 11.6,-24 H 182 v 4 h -6.4 z"
   id="path11" />
	<path
   style="fill:#324a5e"
   d="m 129.6,308.4 c 2,-1.6 4.4,-2.4 7.2,-2.4 2.8,0 5.6,0.8 7.2,2.4 2,1.6 2.8,3.6 2.8,5.6 0,2.4 -0.8,4.4 -2.8,6 2.4,2 3.6,4.4 3.6,7.6 0,2.8 -1.2,4.8 -3.2,6.4 -2,1.6 -4.8,2.8 -8.4,2.8 -3.2,0 -6,-0.8 -8.4,-2.8 -2,-1.6 -3.2,-4 -3.2,-6.4 0,-3.2 1.2,-5.6 3.6,-7.6 -1.6,-1.6 -2.8,-3.6 -2.8,-6 1.6,-2 2.4,-4 4.4,-5.6 z m 4,22 c 0.8,0.8 2,1.2 3.2,1.2 1.2,0 2.4,-0.4 3.2,-1.2 0.8,-0.8 1.6,-1.6 1.6,-2.8 0,-1.2 -0.4,-2.4 -1.6,-2.8 -0.8,-0.8 -2,-1.2 -3.2,-1.2 -1.2,0 -2.4,0.4 -3.2,1.2 -0.8,0.8 -1.6,1.6 -1.6,2.8 0.4,1.2 0.8,2 1.6,2.8 z m 0.4,-13.2 c 0.8,0.8 1.6,1.2 2.8,1.2 1.2,0 2,-0.4 2.8,-1.2 0.8,-0.8 1.2,-1.6 1.2,-2.4 0,-1.2 -0.4,-2 -1.2,-2.4 -0.8,-0.8 -1.6,-1.2 -2.8,-1.2 -1.2,0 -2,0.4 -2.8,1.2 -0.8,0.8 -1.2,1.6 -1.2,2.4 0,1.2 0.4,2 1.2,2.4 z"
   id="path12" />
	<path
   style="fill:#324a5e"
   d="m 117.2,263.6 c 2,0 3.2,-0.8 4.4,-2 1.2,-1.2 1.6,-2.8 2,-5.2 -2,1.2 -3.6,2 -6,2 -2.8,0 -5.2,-0.8 -6.8,-2.8 -2,-2 -2.8,-4.4 -2.8,-7.2 0,-3.2 1.2,-5.6 3.2,-7.2 2,-2 4.4,-2.8 7.6,-2.8 2,0 4,0.4 5.6,1.2 1.6,0.8 2.8,2 3.6,3.2 1.6,2.8 2.4,6.4 2.4,10.4 0,2.8 -0.4,5.2 -1.2,7.2 -0.8,2 -1.6,3.6 -2.8,4.8 -2.4,2.4 -5.2,3.6 -8.4,3.6 -1.2,0 -2.8,-0.4 -4,-0.8 -1.2,-0.4 -2.4,-0.8 -2.8,-1.2 -0.8,-0.4 -1.6,-0.8 -2.4,-1.6 l 3.2,-4.8 c 0,0 0.4,0.4 0.8,0.8 0.4,0.4 0.8,0.8 2,1.2 0.8,1.2 1.6,1.2 2.4,1.2 z m 1.2,-10.8 c 1.2,0 2.4,-0.4 3.2,-1.2 0.8,-0.8 1.2,-1.6 1.2,-3.2 0,-1.2 -0.4,-2.4 -1.2,-3.2 -0.8,-0.8 -2,-1.2 -3.2,-1.2 -1.2,0 -2.4,0.4 -3.2,1.2 -0.8,0.8 -1.2,2 -1.2,3.2 0,1.2 0.4,2.4 1.2,3.2 0.8,0.8 1.6,1.2 3.2,1.2 z"
   id="path13" />
	<path
   style="fill:#324a5e"
   d="m 115.6,171.6 h 12 v 29.6 h -6.4 v -24 h -5.6 z"
   id="path14" />
	<path
   style="fill:#324a5e"
   d="m 146,202 c -4,0 -7.2,-1.2 -9.2,-4 -2,-2.8 -3.2,-6.4 -3.2,-11.2 0,-4.8 1.2,-8.4 3.2,-11.2 2,-2.8 5.2,-4 9.2,-4 4,0 7.2,1.2 9.2,4 2,2.8 3.2,6.4 3.2,11.2 0,4.8 -1.2,8.4 -3.2,11.2 -2,2.4 -4.8,4 -9.2,4 z m -4.4,-22.8 c -0.8,2 -1.6,4.4 -1.6,7.2 0,2.8 0.4,5.2 1.6,7.2 0.8,2 2.4,2.8 4.4,2.8 2,0 3.6,-0.8 4.4,-2.8 0.8,-2 1.2,-4.4 1.2,-7.2 0,-2.8 -0.4,-5.2 -1.2,-7.2 -0.8,-2 -2.4,-2.8 -4.4,-2.8 -2,0 -3.2,1.2 -4.4,2.8 z"
   id="path15" />
	<path
   style="fill:#324a5e"
   d="m 172,122 h 12 v 29.6 h -6.4 v -24 H 172 Z"
   id="path16" />
	<path
   style="fill:#324a5e"
   d="m 189.2,122 h 12 v 29.6 h -6.4 v -24 h -5.6 z"
   id="path17" />
</g><path
   style="fill:#999999;stroke-width:1.26382"
   d="m 59.71564,14.245222 c 2.606635,-0.272663 6.872038,-0.272663 9.478673,0 2.606635,0.272662 0.473933,0.49575 -4.739337,0.49575 -5.21327,0 -7.345971,-0.223088 -4.739336,-0.49575 z"
   id="path22"
   transform="scale(0.62933375)" /></svg>
