<?xml version="1.0" encoding="UTF-8" standalone="no"?>
<!-- Uploaded to: SVG Repo, www.svgrepo.com, Generator: SVG Repo Mixer Tools -->

<svg
   width="800px"
   height="800px"
   viewBox="0 0 36 36"
   aria-hidden="true"
   role="img"
   class="iconify iconify--twemoji"
   preserveAspectRatio="xMidYMid meet"
   version="1.1"
   id="svg2"
   sodipodi:docname="day.svg"
   inkscape:version="1.3.2 (091e20e, 2023-11-25, custom)"
   xmlns:inkscape="http://www.inkscape.org/namespaces/inkscape"
   xmlns:sodipodi="http://sodipodi.sourceforge.net/DTD/sodipodi-0.dtd"
   xmlns="http://www.w3.org/2000/svg"
   xmlns:svg="http://www.w3.org/2000/svg">
  <defs
     id="defs2" />
  <sodipodi:namedview
     id="namedview2"
     pagecolor="#ffffff"
     bordercolor="#000000"
     borderopacity="0.25"
     inkscape:showpageshadow="2"
     inkscape:pageopacity="0.0"
     inkscape:pagecheckerboard="0"
     inkscape:deskcolor="#d1d1d1"
     inkscape:zoom="0.79125"
     inkscape:cx="400"
     inkscape:cy="398.73618"
     inkscape:window-width="1600"
     inkscape:window-height="829"
     inkscape:window-x="-8"
     inkscape:window-y="-8"
     inkscape:window-maximized="1"
     inkscape:current-layer="svg2" />
  <path
     fill="#EA596E"
     d="M36 32a4 4 0 0 1-4 4H4a4 4 0 0 1-4-4V4a4 4 0 0 1 4-4h28a4 4 0 0 1 4 4v28z"
     id="path1" />
  <g
     id="g6"
     transform="matrix(0.07572398,0,0,0.08641451,1.6049289,-1.8567436)">
    <polygon
       style="fill:#005ece"
       points="303.333,42.5 217.5,42.5 217.5,142.5 435,142.5 435,42.5 343.333,42.5 343.333,97.5 303.333,97.5 "
       id="polygon1" />
    <polygon
       style="fill:#9bc9ff"
       points="217.5,289.12 231.99,289.12 220.37,253.98 217.5,262.453 "
       id="polygon2" />
    <path
       style="fill:#9bc9ff"
       d="m 217.5,227.8 h 13.229 l 36.261,99.4 h -23.52 l -7.701,-22.26 H 217.5 V 412.5 H 435 v -270 H 217.5 Z m 66.57,0 21.42,45.64 21.7,-45.64 h 25.06 l -35.42,65.52 V 327.2 H 294.01 V 293.04 L 259.15,227.8 Z"
       id="path2" />
    <polygon
       style="fill:#bddbff"
       points="217.5,262.453 208.469,289.12 217.5,289.12 "
       id="polygon3" />
    <path
       style="fill:#bddbff"
       d="m 139.17,256.08 c -2.24,-2.612 -4.994,-4.62 -8.26,-6.02 -3.269,-1.4 -6.954,-2.1 -11.061,-2.1 h -14.14 v 59.08 h 14.14 c 4.2,0 7.932,-0.746 11.2,-2.24 3.266,-1.492 5.996,-3.57 8.189,-6.23 2.192,-2.66 3.872,-5.786 5.04,-9.38 1.166,-3.592 1.75,-7.536 1.75,-11.83 0,-4.386 -0.584,-8.376 -1.75,-11.97 -1.166,-3.592 -2.867,-6.696 -5.108,-9.31 z"
       id="path3" />
    <path
       style="fill:#bddbff"
       d="m 204.83,304.94 -7.561,22.26 h -23.52 l 36.26,-99.4 H 217.5 V 142.5 H 0 v 270 H 217.5 V 304.94 Z m -38.919,-7.07 c -2.335,6.114 -5.671,11.34 -10.011,15.68 -4.34,4.34 -9.567,7.7 -15.68,10.08 -6.114,2.38 -12.904,3.57 -20.37,3.57 h -37.1 v -99.4 h 37.1 c 8.212,0 15.4,1.308 21.561,3.92 6.159,2.614 11.315,6.16 15.47,10.64 4.151,4.48 7.28,9.73 9.38,15.75 2.1,6.02 3.15,12.438 3.15,19.25 0,7.56 -1.169,14.398 -3.5,20.51 z"
       id="path4" />
    <polygon
       style="fill:#2488ff"
       points="91.667,102.5 91.667,42.5 0,42.5 0,142.5 217.5,142.5 217.5,42.5 131.667,42.5 131.667,102.5 "
       id="polygon4" />
    <rect
       x="91.667"
       y="22.5"
       style="fill:#46f8ff"
       width="40"
       height="80"
       id="rect4" />
    <rect
       x="303.33301"
       y="22.5"
       style="fill:#00e7f0"
       width="40"
       height="75"
       id="rect5" />
    <path
       style="fill:#003f8a"
       d="m 156.88,242.36 c -4.154,-4.48 -9.311,-8.026 -15.47,-10.64 -6.16,-2.612 -13.349,-3.92 -21.561,-3.92 h -37.1 v 99.4 h 37.1 c 7.466,0 14.256,-1.19 20.37,-3.57 6.112,-2.38 11.34,-5.74 15.68,-10.08 4.34,-4.34 7.676,-9.566 10.011,-15.68 2.331,-6.112 3.5,-12.95 3.5,-20.51 0,-6.812 -1.051,-13.23 -3.15,-19.25 -2.099,-6.02 -5.228,-11.27 -9.38,-15.75 z m -12.6,46.83 c -1.168,3.594 -2.848,6.72 -5.04,9.38 -2.193,2.66 -4.924,4.738 -8.189,6.23 -3.269,1.494 -7,2.24 -11.2,2.24 h -14.14 v -59.08 h 14.14 c 4.106,0 7.792,0.7 11.061,2.1 3.266,1.4 6.02,3.408 8.26,6.02 2.24,2.614 3.941,5.718 5.109,9.31 1.166,3.594 1.75,7.584 1.75,11.97 -0.001,4.294 -0.585,8.238 -1.751,11.83 z"
       id="path5" />
    <path
       style="fill:#003f8a"
       d="m 173.75,327.2 h 23.52 l 7.561,-22.26 h 30.939 l 7.701,22.26 h 23.52 L 230.73,227.8 h -20.72 z m 46.62,-73.22 11.62,35.14 h -23.521 l 9.031,-26.667 z"
       id="path6" />
    <polygon
       style="fill:#003f8a"
       points="316.83,327.2 316.83,293.32 352.25,227.8 327.19,227.8 305.49,273.44 284.07,227.8 259.15,227.8 294.01,293.04 294.01,327.2 "
       id="polygon6" />
  </g>
  <path
     style="fill:#999999;stroke-width:1.26382"
     d="M 79.380964,798.6939 C 57.889857,796.15717 43.1927,788.89901 27.032639,772.84181 17.559893,763.42935 14.600109,759.50131 10.337276,750.68476 -0.30859766,728.66658 0.63191153,762.58884 0.63191153,400.63191 0.63191153,38.24352 -0.26119103,70.422574 10.393198,48.926538 17.615267,34.355465 34.157627,17.834593 48.926538,10.44325 70.325566,-0.26624341 38.187405,0.63191153 400,0.63191153 c 361.67616,0 329.57877,-0.89243959 351.07347,9.76128647 14.57107,7.222069 31.09194,23.764429 38.48328,38.53334 10.7095,21.399028 9.81134,-10.739133 9.81134,351.073462 0,361.8126 0.89816,329.67444 -9.81134,351.07347 -7.59114,15.16814 -23.99999,31.47591 -38.84585,38.60662 -21.99465,10.56436 12.15695,9.59288 -345.0237,9.81453 C 230.86888,799.60311 84.031071,799.24279 79.380964,798.6939 Z M 768.40442,395.57662 V 39.178515 h -77.0932 -77.09321 V 20.221169 1.2638231 H 580.09479 545.97156 V 20.221169 39.178515 H 401.89573 257.81991 V 20.221169 1.2638231 H 223.69668 189.57346 V 20.221169 39.178515 H 112.48025 35.387046 V 395.57662 751.97472 H 401.89573 768.40442 Z"
     id="path7"
     transform="scale(0.045)" />
  <path
     style="fill:#999999;stroke-width:1.26382"
     d="M 72.037915,796.84464 C 54.49951,793.31333 41.190846,785.8713 27.069619,771.69896 18.114933,762.71185 9.1602006,749.11395 5.548756,739.01917 1.912091,728.85391 1.3429198,683.00565 1.3479362,400.63191 1.3529489,118.4664 1.9212097,71.131162 5.4252904,60.994657 13.0128,39.045723 39.045723,13.0128 60.994657,5.4252904 67.753442,3.0888509 106.81752,1.3689563 154.50237,1.3083774 l 35.07109,-0.044554 V 20.221169 39.178515 H 112.48025 35.387046 V 395.57662 751.97472 H 401.89573 768.40442 V 395.57662 39.178515 h -77.0932 -77.09321 V 20.016732 0.85494904 l 54.02844,0.83720826 c 29.71564,0.4604646 57.8872,1.4060472 62.60347,2.1012947 24.21536,3.5696988 54.59244,30.835105 63.72934,57.201205 3.48502,10.056616 4.05812,57.856513 4.06457,339.005343 0.006,278.98044 -0.59699,328.90936 -4.09771,339.07026 -7.67449,22.27536 -34.40125,48.69418 -56.08809,55.44182 -3.81747,1.18777 -15.45917,2.29903 -31.34903,2.99244 -13.90205,0.60666 -160.63191,1.07852 -326.06635,1.04858 -242.63638,-0.0439 -302.378112,-0.37422 -309.004735,-1.70846 z"
     id="path8"
     transform="scale(0.045)" />
</svg>
