<?xml version="1.0" encoding="UTF-8" standalone="no"?>
<!-- Uploaded to: SVG Repo, www.svgrepo.com, Generator: SVG Repo Mixer Tools -->

<svg
   width="800px"
   height="800px"
   viewBox="-87.5 0 431 431"
   version="1.1"
   preserveAspectRatio="xMidYMid"
   id="svg3"
   sodipodi:docname="report.svg"
   inkscape:version="1.3.2 (091e20e, 2023-11-25, custom)"
   xmlns:inkscape="http://www.inkscape.org/namespaces/inkscape"
   xmlns:sodipodi="http://sodipodi.sourceforge.net/DTD/sodipodi-0.dtd"
   xmlns="http://www.w3.org/2000/svg"
   xmlns:svg="http://www.w3.org/2000/svg">
  <defs
     id="defs3" />
  <sodipodi:namedview
     id="namedview3"
     pagecolor="#ffffff"
     bordercolor="#000000"
     borderopacity="0.25"
     inkscape:showpageshadow="2"
     inkscape:pageopacity="0.0"
     inkscape:pagecheckerboard="0"
     inkscape:deskcolor="#d1d1d1"
     inkscape:zoom="0.79125"
     inkscape:cx="400"
     inkscape:cy="398.73618"
     inkscape:window-width="1600"
     inkscape:window-height="829"
     inkscape:window-x="-8"
     inkscape:window-y="-8"
     inkscape:window-maximized="1"
     inkscape:current-layer="svg3" />
  <g
     id="g3">
    <path
       style="fill:#0088aa;stroke-width:0.856064"
       d="M 340.92053,34.440709 V 399.69499 c 0,16.07089 -13.14914,29.22003 -29.22003,29.22003 H -53.553784 c -16.07089,0 -29.220034,-13.14914 -29.220034,-29.22003 V 34.440709 c 0,-16.070891 13.149144,-29.2200345 29.220034,-29.2200345 H 311.7005 c 16.07089,0 29.22003,13.1491435 29.22003,29.2200345"
       id="path1-4" />
    <path
       style="fill:#f4efef;stroke-width:0.843728"
       d="M 219.77365,16.568964 H -21.412909 c -6.990916,0 -15.729557,6.842891 -15.729557,13.034078 V 407.59131 c 0,6.19119 9.088189,13.03408 15.729557,13.03408 H 297.37281 c 6.64137,0 11.53501,-6.51704 11.53501,-13.03408 V 101.29047 Z"
       id="path1" />
    <path
       style="fill:#d8d8d8;stroke-width:0.843728"
       d="m 216.62774,17.220668 v 1.303408 58.001647 c 0,11.078968 13.28274,25.090597 25.1673,25.090597 h 66.76323 z"
       id="path2" />
    <path
       d="M 270.45779,257.69941 H 1.3075641 c -2.0972753,0 -3.495458,-1.30341 -3.495458,-3.25852 0,-1.95511 1.3981827,-3.25852 3.495458,-3.25852 H 270.45779 c 2.09727,0 3.49546,1.30341 3.49546,3.25852 0,1.95511 -1.74772,3.25852 -3.49546,3.25852 z"
       id="path3"
       style="stroke-width:0.843728" />
    <path
       d="M 270.45779,225.11421 H 1.3075641 c -2.0972753,0 -3.495458,-1.3034 -3.495458,-3.25852 0,-1.95511 1.3981827,-3.25852 3.495458,-3.25852 H 270.45779 c 2.09727,0 3.49546,1.30341 3.49546,3.25852 0,1.95512 -1.74772,3.25852 -3.49546,3.25852 z"
       id="path4"
       style="stroke-width:0.843728" />
    <path
       d="M 270.45779,192.52901 H 1.3075641 c -2.0972753,0 -3.495458,-1.3034 -3.495458,-3.25851 0,-1.95511 1.3981827,-3.25853 3.495458,-3.25853 H 270.45779 c 2.09727,0 3.49546,1.30342 3.49546,3.25853 0,1.95511 -1.74772,3.25851 -3.49546,3.25851 z"
       id="path5"
       style="stroke-width:0.843728" />
    <path
       d="M 270.45779,322.8698 H 1.3075641 c -2.0972753,0 -3.495458,-1.30341 -3.495458,-3.25852 0,-1.95511 1.3981827,-3.25852 3.495458,-3.25852 H 270.45779 c 2.09727,0 3.49546,1.30341 3.49546,3.25852 0,1.95511 -1.74772,3.25852 -3.49546,3.25852 z"
       id="path6"
       style="stroke-width:0.843728" />
    <path
       d="M 270.45779,290.2846 H 1.3075641 c -2.0972753,0 -3.495458,-1.3034 -3.495458,-3.25851 0,-1.95511 1.3981827,-3.25853 3.495458,-3.25853 H 270.45779 c 2.09727,0 3.49546,1.30342 3.49546,3.25853 0,1.95511 -1.74772,3.25851 -3.49546,3.25851 z"
       id="path7"
       style="stroke-width:0.843728" />
    <path
       d="M 270.45779,355.45499 H -2.1878939 c -2.0972745,0 -3.4954576,-1.3034 -3.4954576,-3.25851 V 156.6853 c 0,-1.95511 1.3981831,-3.25852 3.4954576,-3.25852 H 270.45779 c 2.09727,0 3.49546,1.30341 3.49546,3.25852 v 195.51118 c 0,1.95511 -1.74772,3.25851 -3.49546,3.25851 z M 1.3075641,348.93795 H 266.96234 V 159.94382 H 1.3075641 Z"
       id="path8"
       style="stroke-width:0.843728" />
    <path
       d="m 32.766682,352.19648 c -2.097275,0 -3.495458,-1.30342 -3.495458,-3.25853 V 156.6853 c 0,-1.95511 1.398183,-3.25852 3.495458,-3.25852 2.097274,0 3.495458,1.30341 3.495458,3.25852 v 192.25265 c 0,1.95511 -1.74773,3.25853 -3.495458,3.25853 z"
       id="path9"
       style="stroke-width:0.843728" />
    <path
       d="m 123.64857,352.19648 c -2.09728,0 -3.49545,-1.30342 -3.49545,-3.25853 V 156.6853 c 0,-1.95511 1.39817,-3.25852 3.49545,-3.25852 2.09728,0 3.49547,1.30341 3.49547,3.25852 v 192.25265 c 0,1.95511 -1.74774,3.25853 -3.49547,3.25853 z"
       id="path10"
       style="stroke-width:0.843728" />
    <path
       d="m 197.05318,352.19648 c -2.09727,0 -3.49546,-1.30342 -3.49546,-3.25853 V 156.6853 c 0,-1.95511 1.39819,-3.25852 3.49546,-3.25852 2.09728,0 3.49545,1.30341 3.49545,3.25852 v 192.25265 c 0,1.95511 -1.74773,3.25853 -3.49545,3.25853 z"
       id="path11"
       style="stroke-width:0.843728" />
    <path
       d="M 292.82871,423.8839 H -22.461546 c -9.437735,0 -16.778195,-7.16874 -16.778195,-16.29259 V 29.603042 c 0,-9.123855 7.34046,-16.292598 16.778195,-16.292598 H 215.22956 c 1.04864,0 1.74773,0.325852 2.44681,0.977556 l 91.93053,84.721511 c 0.6991,0.6517 1.04864,1.303409 1.04864,2.280959 v 306.30084 c 0,9.12385 -8.03955,16.29259 -17.82683,16.29259 z M -22.461546,19.827483 c -5.592731,0 -9.787281,4.236075 -9.787281,9.775559 V 407.59131 c 0,5.53948 4.19455,9.77556 9.787281,9.77556 H 292.82871 c 5.94227,0 10.83592,-4.56193 10.83592,-9.77556 V 102.59388 L 213.83138,19.827483 Z"
       id="path12"
       style="stroke-width:0.843728" />
    <path
       d="m 275.70097,104.54899 h -33.55639 c -14.68092,0 -29.36184,-14.337489 -29.36184,-28.349118 V 19.827483 c 0,-1.955111 1.39818,-3.258519 3.49546,-3.258519 2.09727,0 3.49545,1.303408 3.49545,3.258519 v 56.372389 c 0,10.427263 11.88456,21.832079 22.37093,21.832079 h 33.55639 c 2.09728,0 3.49546,1.30341 3.49546,3.258519 0,1.95512 -1.74773,3.25852 -3.49546,3.25852 z"
       id="path13"
       style="stroke-width:0.843728" />
  </g>
</svg>
