<?xml version="1.0" encoding="UTF-8" standalone="no"?>
<!-- Uploaded to: SVG Repo, www.svgrepo.com, Generator: SVG Repo Mixer Tools -->

<svg
   width="800px"
   height="800px"
   viewBox="0 0 36 36"
   aria-hidden="true"
   role="img"
   class="iconify iconify--twemoji"
   preserveAspectRatio="xMidYMid meet"
   version="1.1"
   id="svg2"
   sodipodi:docname="bkg blue 1.svg"
   inkscape:version="1.3.2 (091e20e, 2023-11-25, custom)"
   xmlns:inkscape="http://www.inkscape.org/namespaces/inkscape"
   xmlns:sodipodi="http://sodipodi.sourceforge.net/DTD/sodipodi-0.dtd"
   xmlns="http://www.w3.org/2000/svg"
   xmlns:svg="http://www.w3.org/2000/svg">
  <defs
     id="defs2" />
  <sodipodi:namedview
     id="namedview2"
     pagecolor="#ffffff"
     bordercolor="#000000"
     borderopacity="0.25"
     inkscape:showpageshadow="2"
     inkscape:pageopacity="0.0"
     inkscape:pagecheckerboard="0"
     inkscape:deskcolor="#d1d1d1"
     inkscape:zoom="0.79125"
     inkscape:cx="400"
     inkscape:cy="400"
     inkscape:window-width="1600"
     inkscape:window-height="829"
     inkscape:window-x="-8"
     inkscape:window-y="-8"
     inkscape:window-maximized="1"
     inkscape:current-layer="svg2" />
  <path
     fill="#269"
     d="M36 32a4 4 0 0 1-4 4H4a4 4 0 0 1-4-4V4a4 4 0 0 1 4-4h28a4 4 0 0 1 4 4v28z"
     id="path1" />
  <path
     style="fill:#e6e9ee;stroke-width:0.104375"
     d="m 2.0564217,32.187071 v 0 H 34.135777 v 0 c 0,-1.484674 -1.046065,-2.654417 -2.285846,-2.654417 H 4.3422696 c -1.2397819,0 -2.2858479,1.214733 -2.2858479,2.654417 z"
     id="path2-5" />
  <path
     style="fill:#e6e9ee;stroke-width:0.045"
     d="m 5.535,26.487 v 0 h 14.904 v 0 c 0,-0.594 -0.486,-1.062 -1.062,-1.062 H 6.597 c -0.576,0 -1.062,0.486 -1.062,1.062 z"
     id="path2" />
  <polygon
     style="fill:#ffffff"
     points="110.8,182.4 254,90.8 397.2,182.4 397.2,394 110.8,394 "
     id="polygon2"
     transform="matrix(0.0978211,0,0,0.09076773,-6.7927719,-6.1911891)" />
  <rect
     x="5.9225826"
     y="13.354693"
     style="fill:#324a5e;stroke-width:0.107858"
     width="9.6954594"
     height="16.178501"
     id="rect3" />
  <rect
     x="6.4206395"
     y="14.007086"
     style="fill:#84dbff;stroke-width:0.115193"
     width="8.0835075"
     height="8.184227"
     id="rect4" />
  <polygon
     style="fill:#54c0eb"
     points="224.8,255.6 215.6,255.6 169.2,321.2 224.8,321.2 "
     id="polygon4"
     transform="matrix(0.09921255,0,0,0.12475957,-7.1117642,-17.905772)" />
  <polygon
     style="fill:#ff7058"
     points="427.6,202 427.6,177.6 254,66.4 80.4,177.6 80.4,202 254,90.8 "
     id="polygon3"
     transform="matrix(0.09528719,0,0,0.08358575,-6.184124,-5.1383401)" />
  <rect
     x="17.483175"
     y="13.422298"
     style="fill:#324a5e;stroke-width:0.0917159"
     width="12.908644"
     height="8.9511471"
     id="rect5" />
  <rect
     x="17.861162"
     y="13.927819"
     style="fill:#84dbff;stroke-width:0.0984447"
     width="12.095772"
     height="8.0065308"
     id="rect6" />
  <polygon
     style="fill:#54c0eb"
     points="331.2,256 288.4,340.8 371.6,340.8 371.6,256 "
     id="polygon6"
     transform="matrix(0.08122858,0,0,0.09395824,-0.22836101,-10.08376)" />
</svg>
