<?xml version="1.0" encoding="UTF-8" standalone="no"?>
<!-- Uploaded to: SVG Repo, www.svgrepo.com, Generator: SVG Repo Mixer Tools -->

<svg
   width="800px"
   height="800px"
   viewBox="0 0 24 24"
   version="1.1"
   id="svg5"
   sodipodi:docname="bkgd.svg"
   inkscape:version="1.3.2 (091e20e, 2023-11-25, custom)"
   xmlns:inkscape="http://www.inkscape.org/namespaces/inkscape"
   xmlns:sodipodi="http://sodipodi.sourceforge.net/DTD/sodipodi-0.dtd"
   xmlns="http://www.w3.org/2000/svg"
   xmlns:svg="http://www.w3.org/2000/svg">
  <defs
     id="defs5" />
  <sodipodi:namedview
     id="namedview5"
     pagecolor="#ffffff"
     bordercolor="#000000"
     borderopacity="0.25"
     inkscape:showpageshadow="2"
     inkscape:pageopacity="0.0"
     inkscape:pagecheckerboard="0"
     inkscape:deskcolor="#d1d1d1"
     inkscape:zoom="0.79125"
     inkscape:cx="400"
     inkscape:cy="400"
     inkscape:window-width="1600"
     inkscape:window-height="829"
     inkscape:window-x="-8"
     inkscape:window-y="-8"
     inkscape:window-maximized="1"
     inkscape:current-layer="svg5" />
  <g
     transform="matrix(1.074106,0,0,1.2454477,-0.83239986,-1284.3984)"
     id="g5"
     style="fill:#bdc3c7;fill-opacity:1">
    <path
       d="m 23,1048.4 c 0,1.1 -0.895,2 -2,2 H 13 9 3 c -1.1046,0 -2,-0.9 -2,-2 v -14 c 0,-1.1 0.8954,-2 2,-2 h 6 4 4 4 c 1.105,0 2,0.9 2,2 v 4 z"
       fill="#95a5a6"
       id="path1"
       style="fill:#bdc3c7;fill-opacity:1" />
    <path
       d="m 1,1047.4 c 0,1.1 0.8954,2 2,2 h 8 4 6 c 1.105,0 2,-0.9 2,-2 v -14 c 0,-1.1 -0.895,-2 -2,-2 H 15 11 7 3 c -1.1046,0 -2,0.9 -2,2 v 4 z"
       fill="#bdc3c7"
       id="path2"
       style="fill:#bdc3c7;fill-opacity:1" />
    <rect
       transform="translate(0,1028.4)"
       height="14"
       width="18"
       y="5"
       x="3"
       fill="#f39c12"
       id="rect2"
       style="fill:#bdc3c7;fill-opacity:1" />
    <path
       d="M 16.625,8.625 6.281,19 H 21 v -6 z"
       transform="translate(0,1028.4)"
       fill="#e67e22"
       id="path3"
       style="fill:#bdc3c7;fill-opacity:1" />
    <path
       d="M 8,8 A 2,2 0 1 1 4,8 2,2 0 1 1 8,8 Z"
       transform="matrix(1.75,0,0,1.75,-3,1024.4)"
       fill="#f1c40f"
       id="path4"
       style="fill:#bdc3c7;fill-opacity:1" />
    <path
       d="M 8.0938,11.094 3,16.188 V 19 h 13 z"
       transform="translate(0,1028.4)"
       fill="#d35400"
       id="path5"
       style="fill:#bdc3c7;fill-opacity:1" />
  </g>
  <path
     style="fill:#eff2fa;stroke-width:0.0501762"
     d="M 22.60604,22.946818 H 1.4768713 c -0.4488351,0 -0.81265324,-0.432321 -0.81265324,-0.965665 V 3.6333175 H 23.418739 V 21.981099 c -4.7e-5,0.533398 -0.363865,0.965719 -0.812699,0.965719 z"
     id="path1-3" />
  <g
     id="g38"
     transform="matrix(0.05016789,0,0,0.06767905,-0.72154966,-6.8473642)">
	<path
   style="fill:#d7deed"
   d="m 97.103,260.414 h -35.31 c -4.875,0 -8.828,-3.953 -8.828,-8.828 v -17.655 c 0,-4.875 3.953,-8.828 8.828,-8.828 h 35.31 c 4.875,0 8.828,3.953 8.828,8.828 v 17.655 c 0,4.875 -3.953,8.828 -8.828,8.828 z"
   id="path15" />

	<path
   style="fill:#d7deed"
   d="m 97.103,366.345 h -35.31 c -4.875,0 -8.828,-3.953 -8.828,-8.828 v -17.655 c 0,-4.875 3.953,-8.828 8.828,-8.828 h 35.31 c 4.875,0 8.828,3.953 8.828,8.828 v 17.655 c 0,4.875 -3.953,8.828 -8.828,8.828 z"
   id="path16" />

	<path
   style="fill:#d7deed"
   d="m 97.103,313.379 h -35.31 c -4.875,0 -8.828,-3.953 -8.828,-8.828 v -17.655 c 0,-4.875 3.953,-8.828 8.828,-8.828 h 35.31 c 4.875,0 8.828,3.953 8.828,8.828 v 17.655 c 0,4.876 -3.953,8.828 -8.828,8.828 z"
   id="path17" />

	<path
   style="fill:#d7deed"
   d="m 97.103,419.31 h -35.31 c -4.875,0 -8.828,-3.953 -8.828,-8.828 v -17.655 c 0,-4.875 3.953,-8.828 8.828,-8.828 h 35.31 c 4.875,0 8.828,3.953 8.828,8.828 v 17.655 c 0,4.876 -3.953,8.828 -8.828,8.828 z"
   id="path18" />

	<path
   style="fill:#d7deed"
   d="m 167.724,260.414 h -35.31 c -4.875,0 -8.828,-3.953 -8.828,-8.828 v -17.655 c 0,-4.875 3.953,-8.828 8.828,-8.828 h 35.31 c 4.875,0 8.828,3.953 8.828,8.828 v 17.655 c 0,4.875 -3.953,8.828 -8.828,8.828 z"
   id="path19" />

	<path
   style="fill:#d7deed"
   d="m 167.724,366.345 h -35.31 c -4.875,0 -8.828,-3.953 -8.828,-8.828 v -17.655 c 0,-4.875 3.953,-8.828 8.828,-8.828 h 35.31 c 4.875,0 8.828,3.953 8.828,8.828 v 17.655 c 0,4.875 -3.953,8.828 -8.828,8.828 z"
   id="path20" />

	<path
   style="fill:#d7deed"
   d="m 167.724,419.31 h -35.31 c -4.875,0 -8.828,-3.953 -8.828,-8.828 v -17.655 c 0,-4.875 3.953,-8.828 8.828,-8.828 h 35.31 c 4.875,0 8.828,3.953 8.828,8.828 v 17.655 c 0,4.876 -3.953,8.828 -8.828,8.828 z"
   id="path21" />

	<path
   style="fill:#d7deed"
   d="m 167.724,313.379 h -35.31 c -4.875,0 -8.828,-3.953 -8.828,-8.828 v -17.655 c 0,-4.875 3.953,-8.828 8.828,-8.828 h 35.31 c 4.875,0 8.828,3.953 8.828,8.828 v 17.655 c 0,4.876 -3.953,8.828 -8.828,8.828 z"
   id="path22" />

	<path
   style="fill:#d7deed"
   d="m 238.345,260.414 h -35.31 c -4.875,0 -8.828,-3.953 -8.828,-8.828 v -17.655 c 0,-4.875 3.953,-8.828 8.828,-8.828 h 35.31 c 4.875,0 8.828,3.953 8.828,8.828 v 17.655 c -0.001,4.875 -3.953,8.828 -8.828,8.828 z"
   id="path23" />

	<path
   style="fill:#d7deed"
   d="m 238.345,313.379 h -35.31 c -4.875,0 -8.828,-3.953 -8.828,-8.828 v -17.655 c 0,-4.875 3.953,-8.828 8.828,-8.828 h 35.31 c 4.875,0 8.828,3.953 8.828,8.828 v 17.655 c -0.001,4.876 -3.953,8.828 -8.828,8.828 z"
   id="path24" />

	<path
   style="fill:#d7deed"
   d="m 308.966,260.414 h -35.31 c -4.875,0 -8.828,-3.953 -8.828,-8.828 v -17.655 c 0,-4.875 3.953,-8.828 8.828,-8.828 h 35.31 c 4.875,0 8.828,3.953 8.828,8.828 v 17.655 c -10e-4,4.875 -3.953,8.828 -8.828,8.828 z"
   id="path25" />

	<path
   style="fill:#d7deed"
   d="m 308.966,313.379 h -35.31 c -4.875,0 -8.828,-3.953 -8.828,-8.828 v -17.655 c 0,-4.875 3.953,-8.828 8.828,-8.828 h 35.31 c 4.875,0 8.828,3.953 8.828,8.828 v 17.655 c -10e-4,4.876 -3.953,8.828 -8.828,8.828 z"
   id="path26" />

	<path
   style="fill:#d7deed"
   d="m 238.345,366.345 h -35.31 c -4.875,0 -8.828,-3.953 -8.828,-8.828 v -17.655 c 0,-4.875 3.953,-8.828 8.828,-8.828 h 35.31 c 4.875,0 8.828,3.953 8.828,8.828 v 17.655 c -0.001,4.875 -3.953,8.828 -8.828,8.828 z"
   id="path27" />

	<path
   style="fill:#d7deed"
   d="m 308.966,366.345 h -35.31 c -4.875,0 -8.828,-3.953 -8.828,-8.828 v -17.655 c 0,-4.875 3.953,-8.828 8.828,-8.828 h 35.31 c 4.875,0 8.828,3.953 8.828,8.828 v 17.655 c -10e-4,4.875 -3.953,8.828 -8.828,8.828 z"
   id="path28" />

	<path
   style="fill:#d7deed"
   d="m 238.345,419.31 h -35.31 c -4.875,0 -8.828,-3.953 -8.828,-8.828 v -17.655 c 0,-4.875 3.953,-8.828 8.828,-8.828 h 35.31 c 4.875,0 8.828,3.953 8.828,8.828 v 17.655 c -0.001,4.876 -3.953,8.828 -8.828,8.828 z"
   id="path29" />

	<path
   style="fill:#d7deed"
   d="m 308.966,419.31 h -35.31 c -4.875,0 -8.828,-3.953 -8.828,-8.828 v -17.655 c 0,-4.875 3.953,-8.828 8.828,-8.828 h 35.31 c 4.875,0 8.828,3.953 8.828,8.828 v 17.655 c -10e-4,4.876 -3.953,8.828 -8.828,8.828 z"
   id="path30" />

	<path
   style="fill:#d7deed"
   d="m 379.586,260.414 h -35.31 c -4.875,0 -8.828,-3.953 -8.828,-8.828 v -17.655 c 0,-4.875 3.953,-8.828 8.828,-8.828 h 35.31 c 4.875,0 8.828,3.953 8.828,8.828 v 17.655 c 0,4.875 -3.953,8.828 -8.828,8.828 z"
   id="path31" />

	<path
   style="fill:#d7deed"
   d="m 379.586,366.345 h -35.31 c -4.875,0 -8.828,-3.953 -8.828,-8.828 v -17.655 c 0,-4.875 3.953,-8.828 8.828,-8.828 h 35.31 c 4.875,0 8.828,3.953 8.828,8.828 v 17.655 c 0,4.875 -3.953,8.828 -8.828,8.828 z"
   id="path32" />

	<path
   style="fill:#d7deed"
   d="m 379.586,419.31 h -35.31 c -4.875,0 -8.828,-3.953 -8.828,-8.828 v -17.655 c 0,-4.875 3.953,-8.828 8.828,-8.828 h 35.31 c 4.875,0 8.828,3.953 8.828,8.828 v 17.655 c 0,4.876 -3.953,8.828 -8.828,8.828 z"
   id="path33" />

	<path
   style="fill:#d7deed"
   d="m 379.586,313.379 h -35.31 c -4.875,0 -8.828,-3.953 -8.828,-8.828 v -17.655 c 0,-4.875 3.953,-8.828 8.828,-8.828 h 35.31 c 4.875,0 8.828,3.953 8.828,8.828 v 17.655 c 0,4.876 -3.953,8.828 -8.828,8.828 z"
   id="path34" />

	<path
   style="fill:#d7deed"
   d="m 450.207,260.414 h -35.31 c -4.875,0 -8.828,-3.953 -8.828,-8.828 v -17.655 c 0,-4.875 3.953,-8.828 8.828,-8.828 h 35.31 c 4.875,0 8.828,3.953 8.828,8.828 v 17.655 c -0.001,4.875 -3.953,8.828 -8.828,8.828 z"
   id="path35" />

	<path
   style="fill:#d7deed"
   d="m 450.207,366.345 h -35.31 c -4.875,0 -8.828,-3.953 -8.828,-8.828 v -17.655 c 0,-4.875 3.953,-8.828 8.828,-8.828 h 35.31 c 4.875,0 8.828,3.953 8.828,8.828 v 17.655 c -0.001,4.875 -3.953,8.828 -8.828,8.828 z"
   id="path36" />

	<path
   style="fill:#d7deed"
   d="m 450.207,313.379 h -35.31 c -4.875,0 -8.828,-3.953 -8.828,-8.828 v -17.655 c 0,-4.875 3.953,-8.828 8.828,-8.828 h 35.31 c 4.875,0 8.828,3.953 8.828,8.828 v 17.655 c -0.001,4.876 -3.953,8.828 -8.828,8.828 z"
   id="path37" />

	<path
   style="fill:#d7deed"
   d="m 450.207,419.31 h -35.31 c -4.875,0 -8.828,-3.953 -8.828,-8.828 v -17.655 c 0,-4.875 3.953,-8.828 8.828,-8.828 h 35.31 c 4.875,0 8.828,3.953 8.828,8.828 v 17.655 c -0.001,4.876 -3.953,8.828 -8.828,8.828 z"
   id="path38" />

</g>
  <g
     id="g50"
     transform="matrix(0.05030374,0,0,0.06804138,-0.82955628,-7.0134163)">
	<path
   style="fill:#18bdf6"
   d="M 88.276,251.586 H 70.621 c -4.875,0 -8.828,-3.953 -8.828,-8.828 v 0 c 0,-4.875 3.953,-8.828 8.828,-8.828 h 17.655 c 4.875,0 8.828,3.953 8.828,8.828 v 0 c -0.001,4.876 -3.953,8.828 -8.828,8.828 z"
   id="path48" />

	<path
   style="fill:#18bdf6"
   d="m 441.379,357.517 h -17.655 c -4.875,0 -8.828,-3.953 -8.828,-8.828 v 0 c 0,-4.875 3.953,-8.828 8.828,-8.828 h 17.655 c 4.875,0 8.828,3.953 8.828,8.828 v 0 c 0,4.876 -3.953,8.828 -8.828,8.828 z"
   id="path49" />

	<path
   style="fill:#18bdf6"
   d="m 229.517,304.552 h -17.655 c -4.875,0 -8.828,-3.953 -8.828,-8.828 v 0 c 0,-4.875 3.953,-8.828 8.828,-8.828 h 17.655 c 4.875,0 8.828,3.953 8.828,8.828 v 0 c 0,4.875 -3.953,8.828 -8.828,8.828 z"
   id="path50" />

</g>
  <g
     id="g47"
     transform="matrix(0.05550178,0,0,0.0623918,-1.8862947,-5.37646)">
	<path
   style="fill:#ff6464"
   d="m 211.862,251.586 c -2.259,0 -4.518,-0.862 -6.241,-2.586 l -17.655,-17.655 c -3.448,-3.448 -3.448,-9.035 0,-12.483 3.448,-3.448 9.035,-3.448 12.483,0 l 11.413,11.415 29.069,-29.069 c 3.448,-3.448 9.035,-3.448 12.483,0 3.448,3.448 3.448,9.035 0,12.483 l -35.31,35.31 c -1.724,1.723 -3.983,2.585 -6.242,2.585 z"
   id="path45" />

	<path
   style="fill:#ff6464"
   d="m 353.103,304.552 c -2.259,0 -4.518,-0.862 -6.241,-2.586 l -17.655,-17.655 c -3.448,-3.448 -3.448,-9.035 0,-12.483 3.448,-3.448 9.035,-3.448 12.483,0 l 11.413,11.415 29.069,-29.069 c 3.448,-3.448 9.035,-3.448 12.483,0 3.448,3.448 3.448,9.035 0,12.483 l -35.31,35.31 c -1.724,1.723 -3.983,2.585 -6.242,2.585 z"
   id="path46" />

	<path
   style="fill:#ff6464"
   d="m 141.241,410.483 c -2.259,0 -4.518,-0.862 -6.241,-2.586 l -17.655,-17.655 c -3.448,-3.448 -3.448,-9.035 0,-12.483 3.448,-3.448 9.035,-3.448 12.483,0 l 11.413,11.415 29.069,-29.069 c 3.448,-3.448 9.035,-3.448 12.483,0 3.448,3.448 3.448,9.035 0,12.483 l -35.31,35.31 c -1.724,1.723 -3.983,2.585 -6.242,2.585 z"
   id="path47" />

</g>
  <g
     id="g44"
     transform="matrix(0.05306235,0,0,0.06650599,-1.4967033,-7.3485609)">
	<path
   style="fill:#c7cfe2"
   d="m 97.103,207.448 h -35.31 c -4.875,0 -8.828,-3.953 -8.828,-8.828 v 0 c 0,-4.875 3.953,-8.828 8.828,-8.828 h 35.31 c 4.875,0 8.828,3.953 8.828,8.828 v 0 c 0,4.876 -3.953,8.828 -8.828,8.828 z"
   id="path39" />

	<path
   style="fill:#c7cfe2"
   d="m 167.724,207.448 h -35.31 c -4.875,0 -8.828,-3.953 -8.828,-8.828 v 0 c 0,-4.875 3.953,-8.828 8.828,-8.828 h 35.31 c 4.875,0 8.828,3.953 8.828,8.828 v 0 c 0,4.876 -3.953,8.828 -8.828,8.828 z"
   id="path40" />

	<path
   style="fill:#c7cfe2"
   d="m 238.345,207.448 h -35.31 c -4.875,0 -8.828,-3.953 -8.828,-8.828 v 0 c 0,-4.875 3.953,-8.828 8.828,-8.828 h 35.31 c 4.875,0 8.828,3.953 8.828,8.828 v 0 c -0.001,4.876 -3.953,8.828 -8.828,8.828 z"
   id="path41" />

	<path
   style="fill:#c7cfe2"
   d="m 308.966,207.448 h -35.31 c -4.875,0 -8.828,-3.953 -8.828,-8.828 v 0 c 0,-4.875 3.953,-8.828 8.828,-8.828 h 35.31 c 4.875,0 8.828,3.953 8.828,8.828 v 0 c -10e-4,4.876 -3.953,8.828 -8.828,8.828 z"
   id="path42" />

	<path
   style="fill:#c7cfe2"
   d="m 379.586,207.448 h -35.31 c -4.875,0 -8.828,-3.953 -8.828,-8.828 v 0 c 0,-4.875 3.953,-8.828 8.828,-8.828 h 35.31 c 4.875,0 8.828,3.953 8.828,8.828 v 0 c 0,4.876 -3.953,8.828 -8.828,8.828 z"
   id="path43" />

	<path
   style="fill:#c7cfe2"
   d="m 450.207,207.448 h -35.31 c -4.875,0 -8.828,-3.953 -8.828,-8.828 v 0 c 0,-4.875 3.953,-8.828 8.828,-8.828 h 35.31 c 4.875,0 8.828,3.953 8.828,8.828 v 0 c -0.001,4.876 -3.953,8.828 -8.828,8.828 z"
   id="path44" />

</g>
  <path
     style="fill:#ff6464;stroke-width:0.0408077"
     d="M 23.169547,4.4434941 H 0.90797393 c -0.2195337,0 -0.39754739,-0.1461791 -0.39754739,-0.3264531 V 2.1583962 c 0,-0.180274 0.17801369,-0.3264531 0.39754739,-0.3264531 H 23.169592 c 0.219534,0 0.397547,0.1461791 0.397547,0.3264531 V 4.117041 c -4.4e-5,0.180274 -0.178058,0.3264531 -0.397592,0.3264531 z"
     id="path2-6" />
  <path
     style="fill:#d2555a;stroke-width:0.0490589"
     d="M 23.137868,4.4342772 H 0.94951 c -0.21881163,0 -0.39623985,-0.2119659 -0.39623985,-0.4733708 v 0 c 0,-0.2614049 0.17742822,-0.4733708 0.39623985,-0.4733708 h 22.188405 c 0.218811,0 0.396239,0.2119659 0.396239,0.4733708 v 0 c -4.6e-5,0.2614049 -0.177474,0.4733708 -0.396286,0.4733708 z"
     id="path3-5" />
  <g
     id="g14"
     transform="matrix(0.04850158,0,0,0.04574828,-0.46982167,-1.0637026)">
	<path
   style="fill:#c7cfe2"
   d="m 432.552,92.69 c -4.875,0 -8.828,-3.948 -8.828,-8.828 v -35.31 c 0,-4.879 3.953,-8.828 8.828,-8.828 4.875,0 8.828,3.948 8.828,8.828 v 35.31 c -10e-4,4.88 -3.953,8.828 -8.828,8.828 z"
   id="path4-3" />

	<path
   style="fill:#c7cfe2"
   d="m 476.69,92.69 c -4.875,0 -8.828,-3.948 -8.828,-8.828 v -35.31 c 0,-4.879 3.953,-8.828 8.828,-8.828 4.875,0 8.828,3.948 8.828,8.828 v 35.31 c -10e-4,4.88 -3.953,8.828 -8.828,8.828 z"
   id="path5-7" />

	<path
   style="fill:#c7cfe2"
   d="m 35.31,92.69 c -4.875,0 -8.828,-3.948 -8.828,-8.828 v -35.31 c 0,-4.879 3.953,-8.828 8.828,-8.828 4.875,0 8.828,3.948 8.828,8.828 v 35.31 c 0,4.88 -3.953,8.828 -8.828,8.828 z"
   id="path6" />

	<path
   style="fill:#c7cfe2"
   d="m 388.414,92.69 c -4.875,0 -8.828,-3.948 -8.828,-8.828 v -35.31 c 0,-4.879 3.953,-8.828 8.828,-8.828 4.875,0 8.828,3.948 8.828,8.828 v 35.31 c -0.001,4.88 -3.953,8.828 -8.828,8.828 z"
   id="path7" />

	<path
   style="fill:#c7cfe2"
   d="m 344.276,92.69 c -4.875,0 -8.828,-3.948 -8.828,-8.828 v -35.31 c 0,-4.879 3.953,-8.828 8.828,-8.828 4.875,0 8.828,3.948 8.828,8.828 v 35.31 c -10e-4,4.88 -3.953,8.828 -8.828,8.828 z"
   id="path8" />

	<path
   style="fill:#c7cfe2"
   d="m 300.138,92.69 c -4.875,0 -8.828,-3.948 -8.828,-8.828 v -35.31 c 0,-4.879 3.953,-8.828 8.828,-8.828 4.875,0 8.828,3.948 8.828,8.828 v 35.31 c 0,4.88 -3.953,8.828 -8.828,8.828 z"
   id="path9" />

	<path
   style="fill:#c7cfe2"
   d="m 256,92.69 c -4.875,0 -8.828,-3.948 -8.828,-8.828 v -35.31 c 0,-4.879 3.953,-8.828 8.828,-8.828 4.875,0 8.828,3.948 8.828,8.828 v 35.31 c 0,4.88 -3.953,8.828 -8.828,8.828 z"
   id="path10" />

	<path
   style="fill:#c7cfe2"
   d="m 211.862,92.69 c -4.875,0 -8.828,-3.948 -8.828,-8.828 v -35.31 c 0,-4.879 3.953,-8.828 8.828,-8.828 4.875,0 8.828,3.948 8.828,8.828 v 35.31 c 0,4.88 -3.953,8.828 -8.828,8.828 z"
   id="path11" />

	<path
   style="fill:#c7cfe2"
   d="m 167.724,92.69 c -4.875,0 -8.828,-3.948 -8.828,-8.828 v -35.31 c 0,-4.879 3.953,-8.828 8.828,-8.828 4.875,0 8.828,3.948 8.828,8.828 v 35.31 c 0,4.88 -3.953,8.828 -8.828,8.828 z"
   id="path12" />

	<path
   style="fill:#c7cfe2"
   d="m 123.586,92.69 c -4.875,0 -8.828,-3.948 -8.828,-8.828 v -35.31 c 0,-4.879 3.953,-8.828 8.828,-8.828 4.875,0 8.828,3.948 8.828,8.828 v 35.31 c 0,4.88 -3.953,8.828 -8.828,8.828 z"
   id="path13" />

	<path
   style="fill:#c7cfe2"
   d="m 79.448,92.69 c -4.875,0 -8.828,-3.948 -8.828,-8.828 v -35.31 c 0,-4.879 3.953,-8.828 8.828,-8.828 4.875,0 8.828,3.948 8.828,8.828 v 35.31 c 0,4.88 -3.953,8.828 -8.828,8.828 z"
   id="path14" />

</g>
  <g
     id="g52"
     transform="matrix(0.05018658,0,0,0.06865497,-0.73578487,-7.2175933)">
	<path
   style="fill:#ffd782"
   d="m 300.138,410.483 h -17.655 c -4.875,0 -8.828,-3.953 -8.828,-8.828 v 0 c 0,-4.875 3.953,-8.828 8.828,-8.828 h 17.655 c 4.875,0 8.828,3.953 8.828,8.828 v 0 c 0,4.875 -3.953,8.828 -8.828,8.828 z"
   id="path51" />

	<path
   style="fill:#ffd782"
   d="m 158.897,304.552 h -17.655 c -4.875,0 -8.828,-3.953 -8.828,-8.828 v 0 c 0,-4.875 3.953,-8.828 8.828,-8.828 h 17.655 c 4.875,0 8.828,3.953 8.828,8.828 v 0 c -0.001,4.875 -3.953,8.828 -8.828,8.828 z"
   id="path52" />

</g>
</svg>
