<?xml version="1.0" encoding="UTF-8" standalone="no"?>
<!-- Uploaded to: SVG Repo, www.svgrepo.com, Generator: SVG Repo Mixer Tools -->

<svg
   width="800px"
   height="800px"
   viewBox="0 0 64 64"
   aria-hidden="true"
   role="img"
   class="iconify iconify--emojione"
   preserveAspectRatio="xMidYMid meet"
   version="1.1"
   id="svg22"
   sodipodi:docname="books.svg"
   inkscape:version="1.3.2 (091e20e, 2023-11-25, custom)"
   xmlns:inkscape="http://www.inkscape.org/namespaces/inkscape"
   xmlns:sodipodi="http://sodipodi.sourceforge.net/DTD/sodipodi-0.dtd"
   xmlns="http://www.w3.org/2000/svg"
   xmlns:svg="http://www.w3.org/2000/svg">
  <defs
     id="defs22" />
  <sodipodi:namedview
     id="namedview22"
     pagecolor="#ffffff"
     bordercolor="#000000"
     borderopacity="0.25"
     inkscape:showpageshadow="2"
     inkscape:pageopacity="0.0"
     inkscape:pagecheckerboard="0"
     inkscape:deskcolor="#d1d1d1"
     inkscape:zoom="0.79125"
     inkscape:cx="400"
     inkscape:cy="400"
     inkscape:window-width="1600"
     inkscape:window-height="829"
     inkscape:window-x="-8"
     inkscape:window-y="-8"
     inkscape:window-maximized="1"
     inkscape:current-layer="svg22" />
  <g
     transform="matrix(0.12834425,0,0,0.12875281,-0.15162327,-0.06373137)"
     id="g3"
     style="fill:#666666">
	<path
   style="fill:#666666"
   d="m 498.2,37.4 v 426.667 c 0,18.773 -15.36,34.133 -34.133,34.133 H 37.4 C 18.627,498.2 3.267,482.84 3.267,464.067 V 37.4 C 3.267,18.627 18.627,3.267 37.4,3.267 h 426.667 c 18.773,0 34.133,15.36 34.133,34.133"
   id="path1-0" />

	<path
   style="fill:#666666"
   d="m 250.733,233.667 c 9.387,0 17.067,7.68 17.067,17.067 0,9.387 -7.68,17.067 -17.067,17.067 -9.387,0 -17.067,-7.68 -17.067,-17.067 0.001,-9.387 7.681,-17.067 17.067,-17.067"
   id="path2-3" />

	<path
   style="fill:#666666"
   d="m 250.733,37.4 c 117.76,0 213.333,95.573 213.333,213.333 0,117.76 -95.573,213.333 -213.333,213.333 C 132.973,464.066 37.4,368.493 37.4,250.733 37.4,132.973 132.973,37.4 250.733,37.4 m -17.066,213.333 c 0,9.387 7.68,17.067 17.067,17.067 9.387,0 17.067,-7.68 17.067,-17.067 0,-9.387 -7.68,-17.067 -17.067,-17.067 -9.387,0.001 -17.067,7.681 -17.067,17.067"
   id="path3-9" />

</g>
  <path
     d="M29.2 53.9s-6.1 2.3-5 6.6c1.2 4.5 6.1 1.8 6.1 1.8l30.5-15s-1.7-4.8 1.4-8l-33 14.6"
     fill="#d9e3e8"
     id="path2" />
  <path
     d="M54.9 39.7l7.3 7.6l-32.1 16.1s-4.2 2.1-6.2-1.2c-8-13 31-22.5 31-22.5"
     fill="#256382"
     id="path1" />
  <path
     fill="#42ade2"
     d="M34.4 8.9L63.6 39L29.1 53.3L7 16.7z"
     id="path3" />
  <g
     fill="#94989b"
     id="g6">
    <path
       d="M60.7 42.6l-20.4 8.8l20-9.7z"
       id="path4" />
    <path
       d="M60.4 45.2l-21.7 9.5L60 44.3z"
       id="path5" />
    <path
       d="M60.6 46.7L32.9 59.4l27.3-13.6z"
       id="path6" />
  </g>
  <path
     d="M23.8 62.1c-3.4-7.5 5.3-8.8 5.3-8.8L7 16.7s-5-.1-5 5.4c0 2.3 1 4 1 4l20.8 36"
     fill="#428bc1"
     id="path7" />
  <path
     d="M8.7 32.2l-7.3 7.6l32.1 16.1s4.2 2.1 6.2-1.2c8-13-31-22.5-31-22.5"
     fill="#547725"
     id="path8" />
  <path
     d="M34.3 46.4s6.1 2.3 5 6.6c-1.2 4.5-6 1.8-6 1.8l-30.5-15s1.7-4.8-1.4-8l32.9 14.6"
     fill="#d9e3e8"
     id="path9" />
  <path
     fill="#83bf4f"
     d="M29.2 1.4L0 31.5l34.5 14.3L56.6 9.2z"
     id="path10" />
  <g
     fill="#94989b"
     id="g13">
    <path
       d="M3.2 34.2l20 9.7l-20.4-8.8z"
       id="path11" />
    <path
       d="M3.6 36.8l21.2 10.4l-21.7-9.5z"
       id="path12" />
    <path
       d="M3.4 38.3l27.2 13.6L2.9 39.2z"
       id="path13" />
  </g>
  <path
     d="M39.8 54.6c3.4-7.5-5.3-8.8-5.3-8.8L56.6 9.2s5-.1 5 5.4c0 2.3-1 4-1 4l-20.8 36"
     fill="#699635"
     id="path14" />
  <path
     d="M56.7 26l6.1 6.4l-27.1 13.5s-3.6 1.7-5.3-1C23.8 34 56.7 26 56.7 26z"
     fill="#962c2c"
     id="path15" />
  <path
     d="M35 38s-5.2 1.9-4.2 5.6c1 3.8 5.1 1.5 5.1 1.5l25.7-12.7s-1.4-4 1.2-6.7L35 38z"
     fill="#d9e3e8"
     id="path16" />
  <path
     fill="#ed4c5c"
     d="M39.4 0L64 25.4L34.9 37.5L16.2 6.6z"
     id="path17" />
  <path
     fill="#ffffff"
     d="M40.1 5.8l4.8 5.3l-17.7 6.7L23 11z"
     id="path18" />
  <g
     fill="#94989b"
     id="g21">
    <path
       d="M61.6 28.5l-17.2 7.3l16.8-8.2z"
       id="path19" />
    <path
       d="M61.4 30.7L43 38.6l18-8.8z"
       id="path20" />
    <path
       d="M61.6 31.9L38.2 42.6L61.1 31z"
       id="path21" />
  </g>
  <path
     d="M30.5 44.9c-2.8-6.3 4.5-7.4 4.5-7.4L16.2 6.6s-4.3-.1-4.3 4.5c0 1.9.8 3.4.8 3.4l17.8 30.4"
     fill="#c94747"
     id="path22" />
</svg>
